<svg id="visual" viewBox="0 0 900 600" width="900" height="600" xmlns="http://www.w3.org/2000/svg" xmlns:xlink="http://www.w3.org/1999/xlink" version="1.1"><rect x="0" y="0" width="900" height="600" fill="#001220"></rect><path d="M0 369L21.5 374.3C43 379.7 86 390.3 128.8 398.8C171.7 407.3 214.3 413.7 257.2 415.7C300 417.7 343 415.3 385.8 417.5C428.7 419.7 471.3 426.3 514.2 416C557 405.7 600 378.3 642.8 370.7C685.7 363 728.3 375 771.2 381.2C814 387.3 857 387.7 878.5 387.8L900 388L900 601L878.5 601C857 601 814 601 771.2 601C728.3 601 685.7 601 642.8 601C600 601 557 601 514.2 601C471.3 601 428.7 601 385.8 601C343 601 300 601 257.2 601C214.3 601 171.7 601 128.8 601C86 601 43 601 21.5 601L0 601Z" fill="#fa7268"></path><path d="M0 442L21.5 435.3C43 428.7 86 415.3 128.8 409.8C171.7 404.3 214.3 406.7 257.2 416.8C300 427 343 445 385.8 456C428.7 467 471.3 471 514.2 465.7C557 460.3 600 445.7 642.8 439.3C685.7 433 728.3 435 771.2 442.7C814 450.3 857 463.7 878.5 470.3L900 477L900 601L878.5 601C857 601 814 601 771.2 601C728.3 601 685.7 601 642.8 601C600 601 557 601 514.2 601C471.3 601 428.7 601 385.8 601C343 601 300 601 257.2 601C214.3 601 171.7 601 128.8 601C86 601 43 601 21.5 601L0 601Z" fill="#ef5f67"></path><path d="M0 466L21.5 471.3C43 476.7 86 487.3 128.8 483.7C171.7 480 214.3 462 257.2 460.3C300 458.7 343 473.3 385.8 477C428.7 480.7 471.3 473.3 514.2 475.3C557 477.3 600 488.7 642.8 486.2C685.7 483.7 728.3 467.3 771.2 461.7C814 456 857 461 878.5 463.5L900 466L900 601L878.5 601C857 601 814 601 771.2 601C728.3 601 685.7 601 642.8 601C600 601 557 601 514.2 601C471.3 601 428.7 601 385.8 601C343 601 300 601 257.2 601C214.3 601 171.7 601 128.8 601C86 601 43 601 21.5 601L0 601Z" fill="#e34c67"></path><path d="M0 505L21.5 502.7C43 500.3 86 495.7 128.8 497.3C171.7 499 214.3 507 257.2 505.2C300 503.3 343 491.7 385.8 485.8C428.7 480 471.3 480 514.2 480.2C557 480.3 600 480.7 642.8 488.7C685.7 496.7 728.3 512.3 771.2 518.8C814 525.3 857 522.7 878.5 521.3L900 520L900 601L878.5 601C857 601 814 601 771.2 601C728.3 601 685.7 601 642.8 601C600 601 557 601 514.2 601C471.3 601 428.7 601 385.8 601C343 601 300 601 257.2 601C214.3 601 171.7 601 128.8 601C86 601 43 601 21.5 601L0 601Z" fill="#d53867"></path><path d="M0 567L21.5 563.2C43 559.3 86 551.7 128.8 548.2C171.7 544.7 214.3 545.3 257.2 545.8C300 546.3 343 546.7 385.8 549.7C428.7 552.7 471.3 558.3 514.2 558.2C557 558 600 552 642.8 551.5C685.7 551 728.3 556 771.2 555.3C814 554.7 857 548.3 878.5 545.2L900 542L900 601L878.5 601C857 601 814 601 771.2 601C728.3 601 685.7 601 642.8 601C600 601 557 601 514.2 601C471.3 601 428.7 601 385.8 601C343 601 300 601 257.2 601C214.3 601 171.7 601 128.8 601C86 601 43 601 21.5 601L0 601Z" fill="#c62368"></path></svg>